<svg width="69" height="69" viewBox="0 0 69 69" fill="none" xmlns="http://www.w3.org/2000/svg">
    <path d="M34.6097 4.39453C28.7632 4.39941 23.1561 6.71767 19.0133 10.843C14.8704 14.9683 12.5283 20.5654 12.4985 26.4118C12.4985 35.1774 17.4163 42.5165 21.0201 47.866L21.6771 48.842C25.2627 54.0387 29.1092 59.0505 33.2019 63.8581L34.6284 65.5286L36.055 63.8581C40.1471 59.0501 43.9936 54.0384 47.5798 48.842L48.2367 47.8472C51.8218 42.4977 56.7396 35.1774 56.7396 26.4118C56.7098 20.5621 54.3651 14.9622 50.2182 10.8364C46.0712 6.71053 40.4594 4.39446 34.6097 4.39453ZM34.6097 36.3036C32.1743 36.3036 29.7937 35.5815 27.7688 34.2285C25.7439 32.8755 24.1657 30.9524 23.2338 28.7025C22.3018 26.4526 22.058 23.9768 22.5331 21.5883C23.0082 19.1998 24.1809 17.0058 25.9029 15.2838C27.625 13.5617 29.819 12.389 32.2075 11.9139C34.596 11.4388 37.0718 11.6826 39.3217 12.6146C41.5716 13.5465 43.4947 15.1248 44.8477 17.1496C46.2007 19.1745 46.9228 21.5552 46.9228 23.9905C46.9228 27.2561 45.6255 30.388 43.3164 32.6972C41.0072 35.0064 37.8753 36.3036 34.6097 36.3036Z" fill="black"/>
    <path d="M34.6094 30.9927C38.4761 30.9927 41.6106 27.8581 41.6106 23.9915C41.6106 20.1248 38.4761 16.9902 34.6094 16.9902C30.7427 16.9902 27.6082 20.1248 27.6082 23.9915C27.6082 27.8581 30.7427 30.9927 34.6094 30.9927Z" fill="black"/>
</svg>
