<svg width="59" height="46" viewBox="0 0 59 46" fill="none" xmlns="http://www.w3.org/2000/svg">
    <path d="M58.8907 16.5822V41.3586C58.8907 42.5534 58.4161 43.6992 57.5713 44.544C56.7265 45.3888 55.5807 45.8634 54.3859 45.8634H4.83317C3.63842 45.8634 2.49261 45.3888 1.64779 44.544C0.80298 43.6992 0.328369 42.5534 0.328369 41.3586V16.5822C0.328369 15.9849 0.565675 15.4119 0.988082 14.9895C1.41049 14.5671 1.98339 14.3298 2.58077 14.3298C2.8924 14.2615 3.21515 14.2615 3.52678 14.3298L29.6096 32.349L55.7374 14.3298C56.0345 14.2676 56.3413 14.2676 56.6383 14.3298C57.2357 14.3298 57.8086 14.5671 58.231 14.9895C58.6534 15.4119 58.8907 15.9849 58.8907 16.5822ZM1.45457 4.95985L1.81495 5.32023L29.6096 23.3394L57.4943 5.32023H57.7645C58.1595 5.10439 58.4791 4.77297 58.6804 4.37039C58.8816 3.9678 58.9551 3.51331 58.8907 3.06783C58.8907 2.47046 58.6534 1.89755 58.231 1.47514C57.8086 1.05274 57.2357 0.81543 56.6383 0.81543H2.58077C1.98339 0.81543 1.41049 1.05274 0.988082 1.47514C0.565675 1.89755 0.328369 2.47046 0.328369 3.06783C0.33407 3.45418 0.441087 3.83226 0.638719 4.16428C0.836351 4.49631 1.11768 4.77063 1.45457 4.95985Z" fill="black"/>
</svg>
